<?xml version="1.0" encoding="UTF-8" standalone="no"?>
<!DOCTYPE svg PUBLIC "-//W3C//DTD SVG 1.1//EN" "http://www.w3.org/Graphics/SVG/1.1/DTD/svg11.dtd">
<svg width="100%" height="100%" viewBox="0 0 1024 169" version="1.1" xmlns="http://www.w3.org/2000/svg" xmlns:xlink="http://www.w3.org/1999/xlink" xml:space="preserve" xmlns:serif="http://www.serif.com/" style="fill-rule:evenodd;clip-rule:evenodd;stroke-linejoin:round;stroke-miterlimit:2">
    <g transform="matrix(5.04276,0,0,5.04276,-60.2186,-257.457)">
        <g transform="matrix(0.145321,0,0,0.151419,-27.7248,-0.378371)">
            <path d="M436.253,555.674L412.925,555.674L412.925,532.634C395.837,551.45 376.157,560.858 353.885,560.858C331.613,560.858 312.557,552.65 296.717,536.234C280.877,519.818 272.957,500.234 272.957,477.482C272.957,454.73 280.925,435.242 296.861,419.018C312.797,402.794 332.237,394.682 355.181,394.682C378.125,394.682 397.373,403.994 412.925,422.618L412.925,398.714L436.253,398.714L436.253,555.674ZM355.613,538.682C371.549,538.682 385.277,532.922 396.797,521.402C408.317,509.882 414.077,495.53 414.077,478.346C414.077,461.162 408.413,446.762 397.085,435.146C385.757,423.53 371.885,417.722 355.469,417.722C339.053,417.722 325.181,423.722 313.853,435.722C302.525,447.722 296.861,461.882 296.861,478.202C296.861,494.522 302.621,508.682 314.141,520.682C325.661,532.682 339.485,538.682 355.613,538.682Z" style="fill-rule:nonzero;"/>
            <g transform="matrix(1,0,0,1,-14.688,0)">
                <path d="M614.237,555.674L590.333,555.674L590.333,480.794C590.333,466.202 589.901,455.93 589.037,449.978C588.173,444.026 586.205,438.41 583.133,433.13C580.061,427.85 575.885,423.818 570.605,421.034C565.325,418.25 558.989,416.858 551.597,416.858C544.205,416.858 537.149,418.586 530.429,422.042C523.709,425.498 517.949,430.298 513.149,436.442C508.349,442.586 505.037,449.114 503.213,456.026C501.389,462.938 500.477,476.762 500.477,497.498L500.477,555.674L476.573,555.674L476.573,339.674L500.477,339.674L500.477,422.33C516.029,403.898 534.461,394.682 555.773,394.682C567.101,394.682 577.373,397.61 586.589,403.466C595.805,409.322 602.717,417.386 607.325,427.658C611.933,437.93 614.237,453.722 614.237,475.034L614.237,555.674Z" style="fill-rule:nonzero;"/>
            </g>
        </g>
        <g transform="matrix(0.363536,0,0,0.363536,-17.177,-130.426)">
            <path d="M289.952,543.691L289.952,569.983L286.635,569.983L286.635,565.477C283.631,569.075 280.198,570.874 276.336,570.874C272.474,570.874 269.214,569.496 266.557,566.74C263.9,563.983 262.571,560.699 262.571,556.886C262.571,553.074 263.908,549.806 266.582,547.083C269.256,544.359 272.458,542.998 276.188,542.998C280.479,542.998 283.961,544.83 286.635,548.494L286.635,543.691L289.952,543.691ZM286.833,556.961C286.833,553.957 285.826,551.423 283.813,549.36C281.799,547.297 279.332,546.266 276.41,546.266C273.489,546.266 271.022,547.33 269.008,549.459C266.995,551.588 265.988,554.105 265.988,557.01C265.988,559.915 267.011,562.432 269.058,564.561C271.104,566.69 273.555,567.755 276.41,567.755C279.266,567.755 281.717,566.731 283.763,564.685C285.81,562.638 286.833,560.064 286.833,556.961Z" style="fill-rule:nonzero;"/>
            <rect x="297.082" y="533.541" width="3.367" height="36.442" style="fill-rule:nonzero;"/>
            <path d="M329.613,561.466L332.485,562.952C329.646,568.233 325.454,570.874 319.908,570.874C315.947,570.874 312.679,569.512 310.104,566.789C307.53,564.066 306.242,560.79 306.242,556.961C306.242,553.132 307.538,549.847 310.129,547.107C312.72,544.368 315.922,542.998 319.735,542.998C323.547,542.998 326.749,544.269 329.341,546.81C331.932,549.352 333.277,552.818 333.376,557.208L309.708,557.208C309.807,560.377 310.806,562.927 312.704,564.858C314.602,566.789 316.904,567.755 319.611,567.755C324.067,567.755 327.401,565.659 329.613,561.466ZM329.613,554.287C329.151,551.778 327.995,549.814 326.147,548.395C324.298,546.975 322.169,546.266 319.76,546.266C314.808,546.266 311.573,548.939 310.055,554.287L329.613,554.287Z" style="fill-rule:nonzero;"/>
            <path d="M347.735,558.991L340.11,569.983L336.099,569.983L345.705,556.119L337.04,543.691L341.1,543.691L347.735,553.198L354.32,543.691L358.38,543.691L349.765,556.069L359.519,569.983L355.41,569.983L347.735,558.991Z" style="fill-rule:nonzero;"/>
            <path d="M360.608,543.691L364.173,543.691L373.234,563.942L381.998,543.691L385.613,543.691L369.917,579.588L366.352,579.588L371.402,568.002L360.608,543.691Z" style="fill-rule:nonzero;"/>
            <path d="M403.19,546.563L401.012,548.791C399.196,547.041 397.43,546.167 395.714,546.167C394.591,546.167 393.651,546.522 392.891,547.231C392.132,547.941 391.753,548.816 391.753,549.855C391.753,550.895 392.157,551.786 392.966,552.529C393.774,553.272 395.169,554.163 397.15,555.203C399.13,556.243 400.64,557.365 401.68,558.57C402.72,559.775 403.24,561.252 403.24,563.001C403.24,565.213 402.472,567.078 400.937,568.596C399.402,570.115 397.513,570.874 395.268,570.874C393.783,570.874 392.355,570.544 390.985,569.884C389.615,569.224 388.452,568.299 387.494,567.111L389.623,564.734C391.373,566.682 393.205,567.656 395.119,567.656C396.473,567.656 397.628,567.21 398.585,566.319C399.543,565.428 400.021,564.379 400.021,563.175C400.021,561.97 399.6,560.98 398.759,560.204C397.917,559.428 396.514,558.545 394.55,557.555C392.586,556.565 391.117,555.484 390.143,554.312C389.17,553.14 388.683,551.621 388.683,549.756C388.683,547.891 389.368,546.299 390.738,544.978C392.107,543.658 393.923,542.998 396.184,542.998C398.445,542.998 400.781,544.186 403.19,546.563Z" style="fill-rule:nonzero;"/>
            <path d="M432.502,569.983L428.393,569.983L428.393,557.109C428.393,554.601 428.318,552.835 428.17,551.811C428.021,550.788 427.683,549.822 427.155,548.915C426.627,548.007 425.909,547.314 425.001,546.835C424.093,546.356 423.004,546.117 421.733,546.117C420.462,546.117 419.249,546.414 418.094,547.008C416.939,547.603 415.948,548.428 415.123,549.484C414.298,550.54 413.728,551.663 413.415,552.851C413.101,554.039 412.944,556.416 412.944,559.981L412.944,569.983L408.835,569.983L408.835,532.848L412.944,532.848L412.944,547.058C415.618,543.889 418.787,542.305 422.451,542.305C424.399,542.305 426.165,542.808 427.749,543.815C429.333,544.822 430.522,546.208 431.314,547.974C432.106,549.74 432.502,552.455 432.502,556.119L432.502,569.983Z" style="fill-rule:nonzero;"/>
            <path d="M465.627,557.208L441.959,557.208C442.124,560.179 443.123,562.564 444.955,564.363C446.787,566.162 448.974,567.061 451.516,567.061C455.84,567.061 459.141,564.932 461.418,560.674L464.884,562.457C463.333,565.328 461.501,567.449 459.388,568.819C457.276,570.189 454.75,570.874 451.813,570.874C447.753,570.874 444.402,569.479 441.761,566.69C439.121,563.901 437.8,560.542 437.8,556.614C437.8,552.686 439.129,549.319 441.786,546.513C444.443,543.708 447.736,542.305 451.664,542.305C455.592,542.305 458.877,543.633 461.517,546.29C464.158,548.948 465.528,552.587 465.627,557.208ZM461.072,553.594C460.577,551.283 459.454,549.484 457.705,548.197C455.955,546.909 453.942,546.266 451.664,546.266C447.043,546.266 443.973,548.708 442.455,553.594L461.072,553.594Z" style="fill-rule:nonzero;"/>
            <path d="M498.207,563.645C498.207,567.21 497.902,569.851 497.291,571.567C496.68,573.284 495.756,574.736 494.518,575.924C493.28,577.113 491.795,578.012 490.062,578.623C488.329,579.234 486.423,579.539 484.343,579.539C477.312,579.539 472.625,576.568 470.281,570.626L474.638,570.626C476.553,574.059 479.738,575.776 484.195,575.776C486.241,575.776 488.073,575.38 489.691,574.588C491.308,573.795 492.447,572.739 493.107,571.419C493.767,570.098 494.097,568.068 494.097,565.328L494.097,565.081C492.81,566.533 491.259,567.639 489.443,568.398C487.628,569.158 485.746,569.537 483.799,569.537C479.903,569.537 476.644,568.2 474.02,565.527C471.395,562.853 470.1,559.7 470.133,556.069C470.1,552.273 471.47,549.03 474.242,546.34C477.015,543.65 480.308,542.305 484.12,542.305C487.933,542.305 491.259,543.856 494.097,546.959L494.097,542.998L498.207,542.998L498.207,563.645ZM494.246,556.069C494.246,553.231 493.297,550.887 491.399,549.038C489.501,547.19 487.182,546.266 484.442,546.266C481.537,546.266 479.103,547.264 477.139,549.261C475.175,551.258 474.193,553.577 474.193,556.218C474.193,558.859 475.134,561.095 477.015,562.927C478.897,564.759 481.306,565.675 484.244,565.675C487.182,565.675 489.583,564.776 491.448,562.977C493.313,561.178 494.246,558.875 494.246,556.069Z" style="fill-rule:nonzero;"/>
            <path d="M544.552,569.983L540.393,569.983L540.393,555.277C540.393,552.934 540.252,551.217 539.972,550.128C539.691,549.038 539.081,548.122 538.14,547.38C537.199,546.637 535.961,546.266 534.426,546.266C532.891,546.266 531.447,546.761 530.094,547.751C528.74,548.741 527.8,550.087 527.272,551.786C526.743,553.486 526.479,556.003 526.479,559.337L526.479,569.983L522.469,569.983L522.469,556.168C522.469,553.462 522.328,551.514 522.048,550.326C521.767,549.138 521.148,548.164 520.191,547.405C519.234,546.645 518.029,546.266 516.577,546.266C515.124,546.266 513.746,546.72 512.442,547.627C511.138,548.535 510.173,549.723 509.546,551.192C508.918,552.661 508.605,555.096 508.605,558.496L508.605,569.983L504.545,569.983L504.545,542.998L508.605,542.998L508.605,546.81C510.916,543.807 513.804,542.305 517.27,542.305C519.151,542.305 520.86,542.808 522.394,543.815C523.929,544.822 525.027,546.249 525.687,548.098C526.809,546.216 528.212,544.78 529.896,543.79C531.579,542.8 533.362,542.305 535.243,542.305C537.818,542.305 540.013,543.212 541.829,545.028C543.644,546.843 544.552,550.26 544.552,555.277L544.552,569.983Z" style="fill-rule:nonzero;"/>
            <path d="M577.875,569.983L573.864,569.983L573.864,566.022C570.926,569.257 567.543,570.874 563.714,570.874C559.885,570.874 556.608,569.463 553.885,566.641C551.162,563.818 549.8,560.451 549.8,556.54C549.8,552.628 551.17,549.278 553.91,546.489C556.65,543.699 559.992,542.305 563.936,542.305C567.881,542.305 571.19,543.906 573.864,547.107L573.864,542.998L577.875,542.998L577.875,569.983ZM564.011,567.061C566.75,567.061 569.111,566.071 571.091,564.091C573.072,562.11 574.062,559.643 574.062,556.688C574.062,553.734 573.088,551.258 571.141,549.261C569.193,547.264 566.808,546.266 563.986,546.266C561.164,546.266 558.779,547.297 556.831,549.36C554.884,551.423 553.91,553.858 553.91,556.664C553.91,559.469 554.9,561.904 556.881,563.967C558.861,566.03 561.238,567.061 564.011,567.061Z" style="fill-rule:nonzero;"/>
            <path d="M608.474,569.983L604.414,569.983L604.414,557.109C604.414,554.138 604.274,552.117 603.993,551.044C603.712,549.971 603.3,549.063 602.755,548.321C602.21,547.578 601.517,547.025 600.676,546.662C599.834,546.299 598.811,546.117 597.606,546.117C596.401,546.117 595.221,546.414 594.065,547.008C592.91,547.603 591.92,548.428 591.095,549.484C590.269,550.54 589.7,551.663 589.386,552.851C589.073,554.039 588.916,556.416 588.916,559.981L588.916,569.983L584.806,569.983L584.806,542.998L588.916,542.998L588.916,547.058C591.59,543.889 594.759,542.305 598.423,542.305C600.37,542.305 602.136,542.808 603.721,543.815C605.305,544.822 606.493,546.208 607.286,547.974C608.078,549.74 608.474,552.455 608.474,556.119L608.474,569.983Z" style="fill-rule:nonzero;"/>
            <path d="M638.677,569.983L634.617,569.983L634.617,557.109C634.617,554.138 634.477,552.117 634.196,551.044C633.916,549.971 633.503,549.063 632.958,548.321C632.414,547.578 631.721,547.025 630.879,546.662C630.037,546.299 629.014,546.117 627.809,546.117C626.604,546.117 625.424,546.414 624.269,547.008C623.114,547.603 622.123,548.428 621.298,549.484C620.473,550.54 619.903,551.663 619.59,552.851C619.276,554.039 619.119,556.416 619.119,559.981L619.119,569.983L615.01,569.983L615.01,542.998L619.119,542.998L619.119,547.058C621.793,543.889 624.962,542.305 628.626,542.305C630.574,542.305 632.34,542.808 633.924,543.815C635.508,544.822 636.697,546.208 637.489,547.974C638.281,549.74 638.677,552.455 638.677,556.119L638.677,569.983Z" style="fill-rule:nonzero;"/>
        </g>
    </g>
</svg>
